<svg width="198" height="199" viewBox="0 0 198 199" fill="none"
    xmlns="http://www.w3.org/2000/svg">
    <path d="M146.531 80.7501C144.979 82.3024 143.15 83.3656 141.088 83.8972C135.878 85.2368 130.052 83.1104 124.906 81.2392L123.29 80.6438C115.805 77.9645 106.002 74.2859 96.7525 69.5015C95.9658 69.0975 95.1365 68.6935 94.2859 68.2682C89.6717 66.0355 84.462 63.5051 82.6971 58.3379C80.4006 51.6611 85.0149 44.5802 89.7354 40.5826C93.7969 37.1166 99.2617 34.5862 105.535 33.2891C117.676 30.7587 128.351 33.1828 136.367 40.2636C141.981 45.1969 146.276 52.1289 148.488 59.7839C151.316 69.6716 150.699 76.4973 146.595 80.6863C146.574 80.7076 146.553 80.7288 146.531 80.7501ZM140.811 82.7276C142.683 82.2598 144.277 81.303 145.681 79.8995C145.702 79.8783 145.723 79.857 145.745 79.8358C149.53 76.0083 150.061 69.5653 147.339 60.1241C145.213 52.6817 141.024 45.9411 135.58 41.178C127.819 34.3523 117.506 32.0345 105.768 34.4586C99.7082 35.7131 94.4135 38.1585 90.5222 41.4969C86.1418 45.2394 81.7402 51.8524 83.8453 57.9552C85.4614 62.6332 90.4371 65.0573 94.8175 67.1837C95.6681 67.609 96.5186 67.9918 97.3054 68.4383C106.491 73.2014 116.23 76.8588 123.694 79.5168L125.331 80.0909C130.307 81.9196 135.942 83.9822 140.811 82.7276Z" fill="white"/>
    <path d="M168.539 131.252C168.093 131.698 167.498 132.124 166.732 132.506C162.734 134.505 156.206 134.356 152.57 130.635C149.934 127.913 149.126 123.916 148.445 120.386L148.062 118.472C145.978 107.755 144.022 97.6761 137.643 88.5752C136.559 87.0229 135.368 85.4919 134.071 84.0247L134.985 83.2379C136.303 84.7264 137.537 86.2999 138.642 87.8735C145.17 97.1658 147.148 107.394 149.274 118.238L149.657 120.152C150.316 123.491 151.061 127.297 153.463 129.785C156.61 133.017 162.607 133.229 166.243 131.422C169.454 129.785 168.837 127.85 167.434 124.575C167.264 124.192 167.094 123.767 166.945 123.363C166.668 122.661 166.881 122.236 167.094 122.023C167.604 121.513 168.348 121.96 169.581 122.682C170.028 122.959 170.708 123.342 170.878 123.384C171.283 123.405 171.814 123.214 172.218 122.895C172.558 122.64 172.962 122.151 172.984 121.364C173.622 104.396 150.763 87.6608 143.746 82.9402L144.405 81.9408C153.57 88.1286 174.834 104.332 174.174 121.407C174.153 122.364 173.728 123.214 172.962 123.809C172.324 124.32 171.516 124.617 170.793 124.575C170.368 124.575 169.837 124.256 168.922 123.724C168.71 123.597 168.433 123.448 168.178 123.278C168.284 123.554 168.391 123.831 168.518 124.086C169.496 126.51 170.623 129.168 168.539 131.252Z" fill="white"/>
    <path d="M146.191 135.271C146.106 135.356 146 135.462 145.893 135.526C145.043 136.206 144.001 136.398 142.789 136.121C142.023 135.951 141.322 135.42 140.705 134.59C140.088 133.761 139.706 132.825 139.344 131.954C139.132 131.443 138.919 130.89 138.642 130.401C138.047 129.296 137.09 128.934 135.878 128.488C135.602 128.381 135.283 128.275 134.985 128.147C133.007 127.318 132.561 125.978 132.157 124.766C131.859 123.916 131.625 123.172 130.902 122.576C130.52 122.278 129.988 122.215 129.393 122.13L129.052 122.087C126.692 121.768 124.459 120.514 122.907 118.664C119.718 114.794 120.738 109.818 121.759 106.416L122.461 104.14C124.013 99.1008 125.629 93.8699 125.842 88.5539C125.927 86.0873 125.714 83.7908 125.161 81.5368L126.331 81.2604C126.905 83.6207 127.139 86.0235 127.032 88.5964C126.82 94.0825 125.182 99.3772 123.609 104.481L122.907 106.756C121.865 110.179 121.036 114.538 123.843 117.898C125.161 119.514 127.139 120.599 129.201 120.875L129.541 120.918C130.222 121.003 131.03 121.088 131.668 121.598C132.689 122.406 133.029 123.427 133.326 124.32C133.709 125.468 134.007 126.361 135.474 126.978C135.751 127.084 136.027 127.19 136.303 127.297C137.579 127.765 138.898 128.232 139.727 129.785C140.003 130.316 140.237 130.89 140.471 131.422C140.833 132.294 141.173 133.102 141.683 133.825C142.002 134.229 142.47 134.739 143.087 134.888C143.916 135.079 144.596 134.952 145.149 134.526C145.213 134.463 145.277 134.399 145.341 134.335C147.254 132.421 147.191 126.701 147.148 123.895C147.127 123.235 147.148 122.704 147.148 122.321C147.169 121.534 147.339 118.387 147.701 117.175L148.849 117.515C148.573 118.43 148.381 121.13 148.339 122.364C148.318 122.725 148.318 123.235 148.339 123.852C148.424 127.382 148.466 132.995 146.191 135.271Z" fill="white"/>
    <path d="M125.693 96.6129L124.523 96.294C124.651 95.8261 124.715 95.3371 124.736 94.848C124.8 93.4659 124.672 93.2107 124.098 91.786C123.418 90.1699 122.163 87.1292 119.952 79.6018L121.1 79.2616C123.29 86.7677 124.523 89.7447 125.182 91.3395C125.799 92.8067 125.99 93.2532 125.927 94.8905C125.927 95.4859 125.82 96.06 125.693 96.6129Z" fill="white"/>
    <path d="M122.354 116.622C120.696 118.281 118.484 119.131 116.06 119.046C108.065 118.749 107.044 111.136 106.364 106.118C106.045 103.673 105.747 101.376 104.812 101.333L104.556 101.333C103.791 101.333 102.94 101.333 102.111 101.312C96.9014 101.121 96.0083 100.015 94.8814 98.1226C94.1797 96.9106 93.2866 95.4221 90.0757 93.7423C88.0556 92.7003 86.9074 90.4038 87.0137 87.5757C87.2689 81.1115 91.6067 79.7931 96.1997 78.4323C99.6657 77.3903 103.302 76.3059 105.896 73.0738L106.832 73.8393C103.961 77.3478 100.027 78.5598 96.5399 79.5805C91.9895 80.9414 88.4171 82.0046 88.2045 87.6183C88.1194 89.9573 89.0125 91.8285 90.6073 92.6578C94.1371 94.4865 95.1578 96.2301 95.902 97.4847C96.7738 98.9944 97.3267 99.8875 102.154 100.079C102.962 100.121 103.791 100.1 104.556 100.1L104.769 100.1C106.747 100.164 107.087 102.716 107.533 105.926C108.214 111.115 109.086 117.558 116.081 117.834C118.208 117.919 120.228 117.175 121.589 115.644L122.461 116.473C122.439 116.537 122.397 116.58 122.354 116.622Z" fill="white"/>
    <path d="M83.3349 57.4874C80.0602 60.762 75.7862 61.3361 72.7667 61.2086C71.1719 61.1448 68.7904 60.7195 66.0261 60.1666C62.0072 59.4224 57.0102 58.4655 52.2045 58.2954C49.6103 58.2104 41.7852 57.9127 38.6382 61.0597C38.5956 61.1022 38.5318 61.166 38.4893 61.2086C37.4687 62.3143 37.0859 63.7177 37.2985 65.5039L37.3198 65.6527C37.3623 65.9504 37.4049 66.3332 37.3411 66.6947C37.1072 68.0768 35.5974 68.9912 34.2791 69.7992C33.6837 70.1819 33.0883 70.5221 32.7693 70.8411C32.7055 70.9049 32.6417 70.9687 32.578 71.0325C30.6855 72.925 28.3039 75.7743 28.5165 79.0915C28.7504 82.8127 32.1739 85.7684 35.406 86.7465C38.5106 87.6821 41.2749 86.9166 42.976 84.6627L43.9329 85.4069C41.9128 88.0649 38.6169 88.9792 35.0658 87.8948C31.4297 86.8103 27.6022 83.4506 27.3258 79.1766C27.0919 75.3703 29.6861 72.2658 31.7487 70.2032C31.8125 70.1394 31.8762 70.0756 31.9613 69.9906C32.3866 69.5653 33.0245 69.1825 33.6837 68.7785C34.7469 68.1406 36.044 67.3113 36.1716 66.5033C36.1928 66.3119 36.1715 66.078 36.129 65.8228L36.1078 65.6315C35.8526 63.5051 36.3629 61.7614 37.6175 60.3793C40.7646 57.0621 47.4414 56.892 52.2683 57.0834C57.1803 57.2747 62.2198 58.2316 66.2812 58.9759C69.003 59.4862 71.3633 59.9327 72.8518 59.9753C75.6373 60.0816 79.5499 59.5713 82.5269 56.5943C82.5694 56.5518 82.6119 56.5092 82.6544 56.4667L83.5263 57.296C83.4199 57.4023 83.3774 57.4449 83.3349 57.4874Z" fill="white"/>
    <path d="M90.7772 66.5883C83.994 68.4383 79.316 73.0738 74.7868 77.5605C69.003 83.3018 63.0278 89.1919 52.8212 88.8091C49.6954 88.7028 47.165 88.0861 45.315 87.0442C42.9334 85.6833 41.7639 83.6632 41.8702 80.9627C42.1041 74.8175 48.7597 73.4353 58.0095 71.5428C66.0048 69.8842 75.935 67.8216 85.2699 61.9315L85.9078 62.9522C76.4241 68.9486 66.345 71.0325 58.2647 72.7336C49.5678 74.541 43.2949 75.8381 43.0823 81.0265C42.9972 83.238 43.9116 84.8753 45.9317 86.0023C47.5902 86.9379 50.0143 87.4907 52.9062 87.6183C62.5813 87.9798 68.1312 82.515 73.9787 76.7099C78.6143 72.1169 83.4199 67.3538 90.5221 65.4401L90.7772 66.5883Z" fill="white"/>
    <path d="M95.1152 112.221C93.1589 114.177 90.6711 115.602 87.7792 115.984C85.27 116.325 82.6546 115.75 80.5707 114.389C80.0604 114.049 79.5075 113.411 78.9121 112.731C78.1679 111.859 77.1685 110.69 76.5306 110.647C75.8289 110.626 75.1484 110.796 74.4467 110.987C73.5749 111.221 72.6605 111.455 71.6611 111.349C67.2382 110.881 67.7486 105.522 68.025 102.652C68.9181 93.2107 76.0628 85.9809 82.208 80.7287C84.2706 78.9638 86.4395 77.3053 88.5447 75.6679C89.5228 74.9024 90.5435 74.1369 91.5216 73.3714C91.7981 73.1375 92.1383 72.8824 92.4785 72.6272C93.9244 71.5215 95.7744 70.1818 96.3485 68.6296L97.4968 69.0549C96.7951 70.9473 94.8175 72.4146 93.2227 73.5841C92.8825 73.8392 92.5636 74.0731 92.2871 74.307C91.2877 75.0938 90.3096 75.8593 89.2889 76.6248C87.2051 78.2409 85.0361 79.8995 82.9948 81.6431C77.0409 86.7464 70.0451 93.7422 69.1945 102.758C68.8756 106.182 68.7905 109.839 71.7675 110.137C72.5755 110.222 73.3197 110.03 74.1277 109.818C74.8932 109.605 75.68 109.414 76.5518 109.435C77.7001 109.478 78.7633 110.711 79.8052 111.923C80.3155 112.518 80.8259 113.114 81.2086 113.369C83.0586 114.581 85.3764 115.07 87.6091 114.794C94.2009 113.9 98.4962 107.138 98.7301 101.376C98.7514 101.142 98.7301 100.908 98.7301 100.696L99.9421 100.717C99.9421 100.972 99.9209 101.206 99.9421 101.44C99.7933 105.161 98.0284 109.307 95.1152 112.221Z" fill="white"/>
    <path d="M68.9179 105.927C68.2587 106.543 67.5357 106.841 66.7702 106.798C65.622 106.756 64.7076 106.054 63.8571 105.416C63.0916 104.821 62.3899 104.289 61.5818 104.247C60.7313 104.204 59.6681 104.417 58.5411 104.651C57.2865 104.885 55.9894 105.161 54.8412 105.119C53.374 105.055 50.9499 104.374 51.0987 100.356C51.2476 96.7194 54.0544 94.4654 56.7762 92.2965C58.8388 90.6592 60.7738 89.1069 61.2629 87.1294L62.4324 87.4058C61.7945 89.7873 59.6893 91.4672 57.4354 93.2534C54.9262 95.2522 52.332 97.336 52.2044 100.398C52.0769 103.46 53.6291 103.864 54.7986 103.928C55.8193 103.97 57.0526 103.715 58.2221 103.481C59.4342 103.247 60.5612 103.013 61.5393 103.056C62.7301 103.099 63.687 103.843 64.5162 104.459C65.2605 105.034 65.9622 105.565 66.749 105.586C67.1955 105.608 67.5995 105.416 68.0248 105.034L68.9179 105.927Z" fill="white"/>
    <path d="M74.8931 64.313C68.7053 67.0561 62.156 68.3744 56.3935 69.5014C46.1656 71.564 38.0853 73.1801 37.7663 81.6218C37.7238 82.8551 37.9152 84.1097 38.383 85.3856L37.2773 85.8108C36.7669 84.4074 36.533 82.9827 36.5968 81.6006C36.937 72.2019 45.4426 70.5008 56.1809 68.3532C61.8796 67.2049 68.3438 65.9291 74.4466 63.2286L74.8931 64.313Z" fill="white"/>
    <path d="M144.958 65.6952C144.447 66.0354 143.852 66.163 143.342 66.0354C142.831 65.9079 142.427 65.5464 142.194 65.0573L143.278 64.5257C143.384 64.7171 143.512 64.8447 143.661 64.8659C143.852 64.9297 144.086 64.8659 144.32 64.7171L144.958 65.6952Z" fill="white"/>
    <path d="M142.087 70.905C140.875 71.1389 139.727 70.6711 139.11 69.6717L140.152 69.0551C140.513 69.6292 141.109 69.8844 141.853 69.7355L142.087 70.905Z" fill="white"/>
    <path d="M131.859 68.6298C130.796 68.3746 129.52 67.8643 129.222 66.4608L130.392 66.1844C130.541 66.8011 131.051 67.1838 132.157 67.439L131.859 68.6298Z" fill="white"/>
    <path d="M133.582 64.5682C132.965 64.5895 132.348 64.3556 131.88 63.9303C131.391 63.4413 131.094 62.7608 131.094 62.0378L132.284 62.0378C132.263 62.4418 132.433 62.8246 132.688 63.0798C132.837 63.2286 133.093 63.3987 133.497 63.3775L133.582 64.5682Z" fill="white"/>
    <path d="M117.57 71.4366C115.55 71.7131 113.636 70.8625 112.318 69.1189L113.274 68.3746C114.338 69.778 115.826 70.4585 117.4 70.2459L117.57 71.4366Z" fill="white"/>
    <path d="M114.72 65.7802C113.083 66.0566 111.318 64.9296 110.85 63.3136L112.02 62.9946C112.296 64.0366 113.466 64.7808 114.508 64.5894L114.72 65.7802Z" fill="white"/>
    <path d="M103.089 64.3557C101.154 65.3551 99.2828 64.1218 98.411 62.527L99.4529 61.9529C99.9207 62.8034 101.133 64.058 102.557 63.3138L103.089 64.3557Z" fill="white"/>
    <path d="M98.9001 58.6783C97.1352 58.9548 96.2421 57.8915 95.5191 56.7008L96.5611 56.0841C97.199 57.1473 97.688 57.6364 98.73 57.4875L98.9001 58.6783Z" fill="white"/>
    <path d="M93.0313 60.2517C91.4152 60.1667 90.1394 58.9759 89.8417 57.3173L91.0325 57.1047C91.2239 58.2317 92.0319 58.9972 93.1163 59.061L93.0313 60.2517Z" fill="white"/>
    <path d="M99.134 51.8524C97.7731 51.6398 96.7525 50.5766 96.5823 49.2157L97.7944 49.0669C97.9007 49.8961 98.5174 50.5128 99.3467 50.6616L99.134 51.8524Z" fill="white"/>
    <path d="M105.279 49.1094C104.152 48.8329 103.366 47.9186 103.174 46.664L104.365 46.4939C104.429 46.8554 104.663 47.7272 105.577 47.9611L105.279 49.1094Z" fill="white"/>
    <path d="M123.354 54.7657C121.759 55.1272 120.334 54.4255 119.101 53.8301L118.527 53.5537L119.058 52.4692L119.632 52.7456C120.802 53.3198 121.886 53.8514 123.077 53.5962L123.354 54.7657Z" fill="white"/>
    <path d="M118.973 48.4714C117.485 48.9818 116.592 48.0461 115.89 47.3019L115.613 47.0255L116.464 46.1749L116.74 46.4514C117.463 47.2169 117.846 47.5571 118.59 47.3232L118.973 48.4714Z" fill="white"/>
    <path d="M136.261 78.2624C134.049 79.6232 132.306 79.4531 130.392 77.6244L131.221 76.7526C132.688 78.1773 133.9 78.3261 135.623 77.2417L136.261 78.2624Z" fill="white"/>
    <path d="M130.179 75.5828C128.797 75.8593 127.734 75.3064 126.862 74.7748L127.5 73.7542C128.414 74.3283 129.052 74.5834 129.945 74.4133L130.179 75.5828Z" fill="white"/>
    <path d="M123.715 78.6874C123.013 78.7086 122.354 78.5173 121.801 78.1345L122.503 77.1776C122.822 77.4115 123.247 77.5391 123.651 77.5179L123.715 78.6874Z" fill="white"/>
    <path d="M134.475 54.8718C133.263 55.1057 132.072 54.6804 131.2 53.7661L132.093 52.958C132.688 53.596 133.454 53.8511 134.241 53.7023L134.475 54.8718Z" fill="white"/>
    <path d="M129.797 46.4941L128.691 47.0044C128.478 46.5366 128.117 46.2602 127.713 46.1964C127.309 46.1326 126.968 46.3027 126.649 46.6217L125.756 45.8136C126.331 45.197 127.117 44.878 127.904 44.9843C128.712 45.1119 129.435 45.6648 129.797 46.4941Z" fill="white"/>
    <path d="M124.523 42.5388C124.098 42.3687 123.311 42.1348 122.588 42.5176L122.035 41.4544C122.886 41.0291 123.928 41.0078 124.991 41.4331L124.523 42.5388Z" fill="white"/>
    <path d="M115.21 37.0527C114.721 36.9889 114.636 37.2441 114.572 37.3504L113.466 36.8826C113.764 36.1171 114.487 35.7343 115.38 35.8619L115.21 37.0527Z" fill="white"/>
    <path d="M104.152 41.178L102.961 41.0079C103.068 40.2211 103.365 39.5832 103.706 38.9027L103.812 38.6688L104.896 39.2004L104.79 39.4343C104.492 40.0722 104.216 40.6038 104.152 41.178Z" fill="white"/>
    <path d="M138.004 49.9812C137.941 50.045 137.877 50.1088 137.813 50.1726L137.026 49.2582C137.43 48.8968 137.707 48.4502 137.728 48.1313C137.749 47.9399 137.685 47.791 137.537 47.6422L138.43 46.8342C138.77 47.2169 138.961 47.706 138.919 48.2163C138.898 48.7904 138.557 49.4283 138.004 49.9812Z" fill="white"/>
    <path d="M142.512 55.1271C142.257 55.3823 141.917 55.5949 141.534 55.68L141.258 54.5105C141.534 54.4467 141.726 54.2553 141.896 53.9576C142.045 53.6386 142.045 53.2559 141.981 52.8944L143.15 52.618C143.299 53.2346 143.235 53.8938 143.023 54.4467C142.874 54.6806 142.704 54.9357 142.512 55.1271Z" fill="white"/>
    <path d="M89.7566 52.937L88.6296 53.341C88.0767 51.8525 88.2043 50.4066 88.9698 49.0457L90.0117 49.6198C89.3951 50.7043 89.31 51.7675 89.7566 52.937Z" fill="white"/>
    <path d="M161.055 107.989L159.906 108.372C158.205 103.268 154.123 99.441 150.167 95.7836C146.638 92.5089 143.002 89.128 140.981 84.7689L142.087 84.2586C144.001 88.3838 147.573 91.7009 150.997 94.9118C155.037 98.6542 159.247 102.567 161.055 107.989Z" fill="white"/>
    <path d="M142.363 118.132L141.151 118.026C141.385 115.453 141.066 112.965 140.79 110.52C140.301 106.543 138.961 102.227 136.58 96.8681C135.389 94.1889 134.411 91.9774 133.709 89.5321C133.539 88.9792 133.39 88.2775 133.22 87.5545C132.944 86.1724 132.603 84.5989 132.05 83.7908L133.05 83.1316C133.709 84.131 134.049 85.7471 134.389 87.3206C134.538 88.0224 134.666 88.6603 134.836 89.2131C135.602 91.7648 136.686 94.2102 137.664 96.3791C140.109 101.844 141.47 106.267 141.959 110.371C142.321 112.859 142.619 115.41 142.363 118.132Z" fill="white"/>
    <path d="M116.974 110.69L115.996 110.009C118.675 106.139 117.102 98.9522 116.145 94.6781L116.102 94.508C115.188 90.3615 114.146 82.0899 115.89 77.2842L117.017 77.6883C115.571 81.6433 116.124 89.0432 117.272 94.2316L117.315 94.4017C118.356 99.1861 119.951 106.395 116.974 110.69Z" fill="white"/>
    <path d="M84.8021 181.35L83.6326 181.626C80.6982 170.101 87.9279 154.451 92.7336 144.074L92.9249 143.627C96.5611 135.739 99.2828 127.488 100.814 119.748C100.963 118.919 101.175 117.983 101.409 116.984C102.536 111.902 104.046 104.948 102.217 100.993L103.323 100.483C105.301 104.8 103.727 111.987 102.6 117.239C102.387 118.217 102.175 119.153 102.026 119.982C100.495 127.807 97.7519 136.164 94.0732 144.138L93.8818 144.584C89.0974 154.812 81.974 170.229 84.8021 181.35Z" fill="white"/>
    <path d="M92.3719 196.49C92.0742 196.787 91.7552 196.723 91.6489 196.66C91.2449 196.511 90.6282 196.277 91.7978 188.005C92.3931 183.795 93.2437 179.755 94.5833 174.928C96.0293 169.654 97.8154 164.424 99.5378 159.384C100.899 155.386 102.302 151.219 103.557 147.115L104.705 147.455C103.472 151.58 102.068 155.748 100.686 159.767C98.9637 164.806 97.1988 170.016 95.7528 175.247C94.4557 180.031 93.5839 184.008 93.0098 188.197C92.6271 190.876 92.1805 195.192 92.3719 195.809C92.3506 195.745 92.2443 195.554 91.9891 195.511C91.7765 195.469 91.5639 195.554 91.5426 195.66L92.5845 196.277C92.4995 196.362 92.4357 196.426 92.3719 196.49Z" fill="white"/>
    <path d="M98.8576 195.575L97.6455 195.596C97.5818 184.646 101.218 174.205 104.748 164.126C106.087 160.235 107.512 156.216 108.66 152.261L109.809 152.601C108.639 156.577 107.236 160.617 105.875 164.53C102.366 174.503 98.7725 184.858 98.8576 195.575Z" fill="white"/>
    <path d="M105.79 194.469L104.577 194.533C104.28 189.302 105.938 183.433 107.406 178.266C107.639 177.437 107.873 176.65 108.065 175.863C108.384 174.736 108.681 173.546 109 172.334C110.531 166.465 112.232 159.83 115.273 155.046L116.294 155.684C113.338 160.298 111.637 166.847 110.149 172.631C109.83 173.843 109.511 175.055 109.213 176.204C109 176.969 108.766 177.798 108.533 178.628C107.15 183.667 105.513 189.43 105.79 194.469Z" fill="white"/>
    <path d="M113.827 193.832L112.636 193.704C113.955 182.647 117.952 170.654 123.311 161.638L124.353 162.255C119.101 171.122 115.146 182.944 113.827 193.832Z" fill="white"/>
</svg>
