<svg width="46" height="31" viewBox="0 0 46 31" fill="none" xmlns="http://www.w3.org/2000/svg">
<path d="M45.1636 21.5808C45.1636 27.8603 41.619 31 34.5299 31C27.4407 31 23.8961 27.4231 23.8961 20.2692C23.8961 13.0359 28.9143 6.27949 38.9506 0L46 2.62307L38.5922 12.2808L38.8312 12.8769C43.0528 13.7513 45.1636 16.6526 45.1636 21.5808ZM21.2675 21.5808C21.2675 27.8603 17.7229 31 10.6338 31C3.54459 31 0 27.4231 0 20.2692C0 13.0359 5.01818 6.27949 15.0545 0L22.1039 2.62307L14.6961 12.2808L14.9351 12.8769C19.1567 13.7513 21.2675 16.6526 21.2675 21.5808Z" fill="white"/>
</svg>
